<svg xmlns="http://www.w3.org/2000/svg" width="430" height="430" style="width:100%;height:100%;transform:translate3d(0,0,0);content-visibility:visible" viewBox="0 0 430 430"><defs><clipPath id="e"><path d="M0 0h430v430H0z"/></clipPath><clipPath id="m"><path d="M0 0h430v430H0z"/></clipPath><clipPath id="h"><path d="M0 0h430v430H0z"/></clipPath><clipPath id="j"><path d="M0 0h430v430H0z"/></clipPath><clipPath id="i"><path d="M0 0h430v430H0z"/></clipPath><clipPath id="g"><path d="M0 0h430v430H0z"/></clipPath><clipPath id="f"><path d="M0 0h430v430H0z"/></clipPath><filter id="a" width="100%" height="100%" x="0%" y="0%" filterUnits="objectBoundingBox"><feComponentTransfer in="SourceGraphic"><feFuncA tableValues="1.0 0.0" type="table"/></feComponentTransfer></filter><filter id="c" width="100%" height="100%" x="0%" y="0%" filterUnits="objectBoundingBox"><feComponentTransfer in="SourceGraphic"><feFuncA tableValues="1.0 0.0" type="table"/></feComponentTransfer></filter><path id="d" fill="red" d="M0 190c-4.788 0-8.857-3.075-10.343-7.357-14.943-55.208-45.328-104.068-86.234-141.659-52.351-53.037-52.139-138.47.635-191.244C-69.448-176.754-34.724-190 0-190s69.448 13.246 95.942 39.74c52.774 52.774 52.986 138.207.635 191.244-40.906 37.591-71.291 86.451-86.234 141.659C8.857 186.925 4.788 190 0 190" style="display:block" transform="translate(270.111 220)"/><path id="b" style="display:none"/><mask id="n" mask-type="alpha"><g filter="url(#a)"><path fill="#fff" d="M0 0h430v430H0z" opacity="0"/><use xmlns:ns1="http://www.w3.org/1999/xlink" ns1:href="#b"/></g></mask><mask id="l" mask-type="alpha"><g filter="url(#c)"><path fill="#fff" d="M0 0h430v430H0z" opacity="0"/><use xmlns:ns2="http://www.w3.org/1999/xlink" ns2:href="#d"/></g></mask></defs><g clip-path="url(#e)"><g clip-path="url(#f)" style="display:none"><g style="display:none"><path class="quinary"/><path class="quinary" style="mix-blend-mode:multiply"/></g><g style="display:none"><path class="tertiary"/><path class="tertiary" style="mix-blend-mode:multiply"/><path class="secondary"/><path class="primary"/><path class="primary"/><path class="primary" style="mix-blend-mode:multiply"/><path class="quaternary"/><path class="secondary" style="mix-blend-mode:multiply"/><path class="quaternary" style="mix-blend-mode:multiply"/><path class="primary" style="mix-blend-mode:multiply"/></g></g><g clip-path="url(#g)" style="display:none"><g style="display:none"><path class="quinary"/><path class="quinary" style="mix-blend-mode:multiply"/></g><g style="display:none"><path class="tertiary"/><path class="tertiary" style="mix-blend-mode:multiply"/><path class="secondary"/><path class="primary"/><path class="primary"/><path class="primary" style="mix-blend-mode:multiply"/><path class="quaternary"/><path class="secondary" style="mix-blend-mode:multiply"/><path class="quaternary" style="mix-blend-mode:multiply"/><path class="primary" style="mix-blend-mode:multiply"/></g></g><g clip-path="url(#h)" style="display:block"><g clip-path="url(#i)" style="display:block"><path fill="#2CA48D" d="M-29.896 162.773c1.486 4.282 5.555 7.357 10.343 7.357s8.858-3.075 10.344-7.357C5.734 107.565 36.119 58.705 77.025 21.114c52.351-53.037 52.138-138.47-.636-191.244l-55.046 60.26c8.331 9.54 13.378 22.022 13.378 35.682 0 23.631-14.978 44.108-36.057 51.559-5.659 2-15.123 10.213-21.466 10.213-15.518 0-29.015.738-38.907-9.704l-20.733 46.796c14.731 13.537-1.285 30.829 8.182 43.517 21.304 28.555 34.802 59.254 44.364 94.58" class="tertiary" style="display:block" transform="translate(234.664 239.87)"/><path fill="#FFC638" d="M73.041-13.361-7.23 82.332a300 300 0 0 0-42.238-48.079c-9.64-9.766-17.498-20.631-23.573-32.188l70.209-84.397A54.1 54.1 0 0 0-7.163-61.05c0 29.974 24.298 54.273 54.272 54.273 9.392 0 18.227-2.386 25.932-6.584" class="secondary" style="display:block" transform="translate(168.002 226.731)"/><path fill="#4AB3FC" d="m-74.846 10.983 70.221-84.41c20.4 6.306 39.607 17.533 55.755 33.681 9.67 9.67 17.576 20.436 23.716 31.898L6.669 73.427a54.2 54.2 0 0 0 2.792-17.232c0-29.974-24.298-54.273-54.272-54.273-11.106 0-21.434 3.336-30.035 9.061" class="primary" style="display:block" transform="translate(259.923 109.486)"/><g fill="#4AB3FC" style="display:block"><path d="M177.622 126.438c2.301-2.199 5.421-4.323 8.081-6.093l70.095-84.286C242.729 32.02 228.67 30 215.111 30c-34.724 0-69.447 13.246-95.941 39.74q-1.935 1.935-3.776 3.928z" class="primary"/><path fill-opacity=".7" d="M-7.724 48.219c2.301-2.199 5.421-4.323 8.081-6.093L70.452-42.16c-13.069-4.039-27.128-6.059-40.687-6.059-34.724 0-69.447 13.246-95.941 39.74q-1.935 1.935-3.776 3.928z" class="primary" style="mix-blend-mode:multiply" transform="translate(185.346 78.219)"/></g><path fill="#F14B00" d="m36.644-6.832-70.208 84.396C-59.675 27.894-52.865-34.565-13.132-77.564l62.228 52.77A54.4 54.4 0 0 0 36.644-6.832" class="quaternary" style="display:block" transform="translate(128.526 151.232)"/></g><g clip-path="url(#j)" mask="url(#l)" opacity=".5" style="mix-blend-mode:multiply;display:block"><path fill="#2CA48D" d="M-29.896 162.773c1.486 4.282 5.555 7.357 10.343 7.357s8.858-3.075 10.344-7.357C5.734 107.565 36.119 58.705 77.025 21.114c52.351-53.037 52.138-138.47-.636-191.244l-55.046 60.26c8.331 9.54 13.378 22.022 13.378 35.682 0 23.631-14.978 44.108-36.057 51.559-5.659 2-15.123 10.213-21.466 10.213-15.518 0-29.015.738-38.907-9.704l-20.733 46.796c14.731 13.537-1.285 30.829 8.182 43.517 21.304 28.555 34.802 59.254 44.364 94.58" class="tertiary" opacity="1" style="display:block" transform="translate(234.664 239.87)"/><path fill="#FFC638" d="M73.041-13.361-7.23 82.332a300 300 0 0 0-42.238-48.079c-9.64-9.766-17.498-20.631-23.573-32.188l70.209-84.397A54.1 54.1 0 0 0-7.163-61.05c0 29.974 24.298 54.273 54.272 54.273 9.392 0 18.227-2.386 25.932-6.584" class="secondary" opacity="1" style="display:block" transform="translate(168.002 226.731)"/><path fill="#4AB3FC" d="m-74.846 10.983 70.221-84.41c20.4 6.306 39.607 17.533 55.755 33.681 9.67 9.67 17.576 20.436 23.716 31.898L6.669 73.427a54.2 54.2 0 0 0 2.792-17.232c0-29.974-24.298-54.273-54.272-54.273-11.106 0-21.434 3.336-30.035 9.061" class="primary" opacity="1" style="display:block" transform="translate(259.923 109.486)"/><g fill="#4AB3FC" opacity="1" style="display:block"><path d="M177.622 126.438c2.301-2.199 5.421-4.323 8.081-6.093l70.095-84.286C242.729 32.02 228.67 30 215.111 30c-34.724 0-69.447 13.246-95.941 39.74q-1.935 1.935-3.776 3.928z" class="primary"/><path fill-opacity=".7" d="M-7.724 48.219c2.301-2.199 5.421-4.323 8.081-6.093L70.452-42.16c-13.069-4.039-27.128-6.059-40.687-6.059-34.724 0-69.447 13.246-95.941 39.74q-1.935 1.935-3.776 3.928z" class="primary" style="mix-blend-mode:multiply" transform="translate(185.346 78.219)"/></g><path fill="#F14B00" d="m36.644-6.832-70.208 84.396C-59.675 27.894-52.865-34.565-13.132-77.564l62.228 52.77A54.4 54.4 0 0 0 36.644-6.832" class="quaternary" opacity="1" style="display:block" transform="translate(128.526 151.232)"/></g></g><g clip-path="url(#m)" style="display:none"><g style="display:none"><path class="tertiary"/><path class="secondary"/><path class="primary"/><path class="primary"/><path class="primary" style="mix-blend-mode:multiply"/><path class="quaternary"/></g><g mask="url(#n)" style="mix-blend-mode:multiply;display:none"><path class="tertiary"/><path class="secondary"/><path class="primary"/><path class="primary"/><path class="primary" style="mix-blend-mode:multiply"/><path class="quaternary"/></g></g></g></svg>